<svg width="22" height="29" viewBox="0 0 22 29" fill="none" xmlns="http://www.w3.org/2000/svg">
<path d="M10.5003 0.333313C12.5225 0.333313 14.2503 1.03887 15.6836 2.44998C17.1169 3.86109 17.8336 5.57776 17.8336 7.59998C17.8336 8.75554 17.5836 9.84442 17.0836 10.8666C16.5836 11.8889 15.878 12.7555 14.9669 13.4666H13.8336V11.8C14.478 11.2889 14.9725 10.6666 15.3169 9.93331C15.6614 9.19998 15.8336 8.4222 15.8336 7.59998C15.8336 6.13331 15.3114 4.88887 14.2669 3.86665C13.2225 2.84442 11.9669 2.33331 10.5003 2.33331C9.03359 2.33331 7.77804 2.84442 6.73359 3.86665C5.68915 4.88887 5.16693 6.13331 5.16693 7.59998C5.16693 8.4222 5.33915 9.19998 5.68359 9.93331C6.02804 10.6666 6.52248 11.2889 7.16693 11.8V14.2C5.92248 13.5555 4.94471 12.6444 4.23359 11.4666C3.52248 10.2889 3.16693 8.99998 3.16693 7.59998C3.16693 5.57776 3.88359 3.86109 5.31693 2.44998C6.75026 1.03887 8.47804 0.333313 10.5003 0.333313ZM9.23359 28.3333C8.85582 28.3333 8.50026 28.2611 8.16693 28.1166C7.83359 27.9722 7.54471 27.7778 7.30026 27.5333L0.433594 20.6666L2.30026 18.7333C2.61137 18.4222 2.96137 18.1833 3.35026 18.0166C3.73915 17.85 4.14471 17.8222 4.56693 17.9333L7.16693 18.5333V7.66665C7.16693 6.73331 7.48915 5.94442 8.13359 5.29998C8.77804 4.65554 9.56693 4.33331 10.5003 4.33331C11.4336 4.33331 12.2225 4.65554 12.8669 5.29998C13.5114 5.94442 13.8336 6.73331 13.8336 7.66665V13.4H14.7003C14.8114 13.4 14.9114 13.4222 15.0003 13.4666C15.0891 13.5111 15.1891 13.5555 15.3003 13.6L20.2336 16C20.7669 16.2444 21.1614 16.6389 21.4169 17.1833C21.6725 17.7278 21.7447 18.2889 21.6336 18.8666L20.4336 26.1333C20.3225 26.7778 20.0114 27.3055 19.5003 27.7166C18.9891 28.1278 18.4114 28.3333 17.7669 28.3333H9.23359ZM8.96693 26.3333H18.3336L19.7669 18.0333L13.6669 15H11.8336V7.66665C11.8336 7.26665 11.7114 6.94442 11.4669 6.69998C11.2225 6.45554 10.9003 6.33331 10.5003 6.33331C10.1003 6.33331 9.77804 6.45554 9.53359 6.69998C9.28915 6.94442 9.16693 7.26665 9.16693 7.66665V20.9666L4.03359 19.8666L3.26693 20.6333L8.96693 26.3333ZM18.3336 26.3333H8.96693H18.3336Z" fill="#7EB101"/>
</svg>
